<?xml version="1.0" encoding="UTF-8"?>
<svg version="1.1" xmlns="http://www.w3.org/2000/svg" width="108" height="105">
<path d="M0 0 C35.64 0 71.28 0 108 0 C108 34.65 108 69.3 108 105 C72.36 105 36.72 105 0 105 C0 70.35 0 35.7 0 0 Z " fill="#F3EFE3" transform="translate(0,0)"/>
<path d="M0 0 C0.99 0 1.98 0 3 0 C5.33760277 4.67520554 4.41227209 11.22712019 3 16.125 C2.67 17.07375 2.34 18.0225 2 19 C2.66 19.33 3.32 19.66 4 20 C3.9278125 20.68707031 3.855625 21.37414062 3.78125 22.08203125 C3.6884375 22.98308594 3.595625 23.88414063 3.5 24.8125 C3.4071875 25.70582031 3.314375 26.59914063 3.21875 27.51953125 C2.99314272 30.07775665 2.96008341 32.52632318 3.17578125 35.0859375 C3.43045879 39.34996712 3.48713629 41.34093325 0.875 44.875 C-6.05882353 50 -6.05882353 50 -10 50 C-9.505 53.96 -9.505 53.96 -9 58 C-2.67429356 53.93122936 -2.67429356 53.93122936 3.25 49.3125 C5.76165614 47.20042552 8.18987085 45.67111231 11 44 C15.36261209 41.06205342 19.67816595 38.08150059 23.75 34.75 C26.76514752 32.40488526 30.0772914 30 34 30 C34 29.34 34 28.68 34 28 C34.99 28 35.98 28 37 28 C40.49117258 34.98234517 40.3720295 47.90513885 38.38671875 55.27734375 C35.99195534 60.09851943 31.71593983 62.76910631 27 65 C24.25 65.6875 24.25 65.6875 22 66 C19.76529595 66.78309467 19.76529595 66.78309467 18 68 C17.505 69.485 17.505 69.485 17 71 C15.31949635 71.69725245 13.63699859 72.39024615 11.94287109 73.05371094 C8.49677072 74.73215842 6.00010149 77.44058665 3.3125 80.125 C-2.62126619 86.01052419 -2.62126619 86.01052419 -7 87 C-7.66 87.53625 -8.32 88.0725 -9 88.625 C-11 90 -11 90 -12.9152832 89.71118164 C-16.34108843 88.54250022 -19.21009506 86.450754 -22.1875 84.4375 C-22.8573291 83.98930908 -23.5271582 83.54111816 -24.21728516 83.0793457 C-28.80701137 79.95391846 -32.90125409 76.5388143 -36.953125 72.73828125 C-39.6992673 70.40615659 -42.67288617 68.86518077 -45.86328125 67.22265625 C-48.70865732 65.59449773 -51.00844016 63.56494119 -53.39453125 61.33203125 C-54.96718341 59.8945007 -54.96718341 59.8945007 -57.07421875 59.13671875 C-59.81648024 57.51806136 -60.17083797 56.04026077 -61 53 C-61.57616319 45.00207367 -61.02482461 36.94239075 -60 29 C-54.41425 30.63848667 -49.53858236 32.27603499 -45 36 C-45 36.99 -45 37.98 -45 39 C-44.154375 39.226875 -43.30875 39.45375 -42.4375 39.6875 C-38.49613144 41.19238618 -35.11238141 43.12703255 -32 46 C-32 46.66 -32 47.32 -32 48 C-31.34 48.2475 -30.68 48.495 -30 48.75 C-26.23639093 50.31817045 -22.6288576 52.14505046 -19 54 C-19 54.99 -19 55.98 -19 57 C-17.35 57.33 -15.7 57.66 -14 58 C-13.86521513 54.66945626 -13.86521513 54.66945626 -15 51 C-16.93374409 49.43600478 -18.86699805 48.347687 -21.08984375 47.23828125 C-23.44459694 45.71178481 -24.09361016 44.64324157 -25 42 C-25.125 39.4921875 -25.125 39.4921875 -25 36.875 C-24.83279769 34.30694573 -24.83279769 34.30694573 -25 32 C-25.66 31.34 -26.32 30.68 -27 30 C-27.1953125 27.6171875 -27.1953125 27.6171875 -27.125 24.875 C-27.10695312 23.96492188 -27.08890625 23.05484375 -27.0703125 22.1171875 C-27.04710937 21.41851562 -27.02390625 20.71984375 -27 20 C-26.34 20 -25.68 20 -25 20 C-25.16371094 19.31550781 -25.32742187 18.63101562 -25.49609375 17.92578125 C-26.06447034 14.6256722 -26.09630767 11.53445931 -26.0625 8.1875 C-26.05347656 7.02605469 -26.04445312 5.86460938 -26.03515625 4.66796875 C-26.02355469 3.78753906 -26.01195312 2.90710938 -26 2 C-25.67 2 -25.34 2 -25 2 C-24.87625 2.804375 -24.7525 3.60875 -24.625 4.4375 C-24.41875 5.283125 -24.2125 6.12875 -24 7 C-23.34 7.33 -22.68 7.66 -22 8 C-22 8.99 -22 9.98 -22 11 C-20.329375 11.37125 -20.329375 11.37125 -18.625 11.75 C-15 13 -15 13 -13.7734375 15.078125 C-13.51820312 15.71234375 -13.26296875 16.3465625 -13 17 C-12.52949219 16.59007813 -12.05898438 16.18015625 -11.57421875 15.7578125 C-10.95160156 15.21898437 -10.32898437 14.68015625 -9.6875 14.125 C-9.07261719 13.59132813 -8.45773438 13.05765625 -7.82421875 12.5078125 C-3.58031088 9 -3.58031088 9 0 9 C0 6.03 0 3.06 0 0 Z " fill="#78644E" transform="translate(65,11)"/>
<path d="M0 0 C0.99 0 1.98 0 3 0 C5.33760277 4.67520554 4.41227209 11.22712019 3 16.125 C2.67 17.07375 2.34 18.0225 2 19 C2.66 19.33 3.32 19.66 4 20 C3.63889974 26.18851128 3.30960035 31.66193491 0 37 C-2.01628305 38.0949078 -4.07450522 38.94250034 -6.19140625 39.82421875 C-8.55463072 41.36056986 -8.85143203 42.54684444 -9.5 45.25 C-9.7475 47.10625 -9.7475 47.10625 -10 49 C-10.66 49 -11.32 49 -12 49 C-12.12375 48.195625 -12.2475 47.39125 -12.375 46.5625 C-12.58125 45.716875 -12.7875 44.87125 -13 44 C-13.66 43.67 -14.32 43.34 -15 43 C-15.625 40.4375 -15.625 40.4375 -16 38 C-18.31 37.67 -20.62 37.34 -23 37 C-23.495 39.475 -23.495 39.475 -24 42 C-24.33 42 -24.66 42 -25 42 C-24.97679687 41.30132812 -24.95359375 40.60265625 -24.9296875 39.8828125 C-24.91164062 38.97273438 -24.89359375 38.06265625 -24.875 37.125 C-24.84019531 35.76761719 -24.84019531 35.76761719 -24.8046875 34.3828125 C-24.75675164 31.81193006 -24.75675164 31.81193006 -27 30 C-27.1953125 27.6171875 -27.1953125 27.6171875 -27.125 24.875 C-27.10695312 23.96492188 -27.08890625 23.05484375 -27.0703125 22.1171875 C-27.04710937 21.41851562 -27.02390625 20.71984375 -27 20 C-26.34 20 -25.68 20 -25 20 C-25.16371094 19.31550781 -25.32742187 18.63101562 -25.49609375 17.92578125 C-26.06447034 14.6256722 -26.09630767 11.53445931 -26.0625 8.1875 C-26.05347656 7.02605469 -26.04445312 5.86460938 -26.03515625 4.66796875 C-26.02355469 3.78753906 -26.01195312 2.90710938 -26 2 C-25.67 2 -25.34 2 -25 2 C-24.814375 3.2065625 -24.814375 3.2065625 -24.625 4.4375 C-24.41875 5.283125 -24.2125 6.12875 -24 7 C-23.34 7.33 -22.68 7.66 -22 8 C-22 8.99 -22 9.98 -22 11 C-20.88625 11.2475 -19.7725 11.495 -18.625 11.75 C-15 13 -15 13 -13.7734375 15.078125 C-13.51820312 15.71234375 -13.26296875 16.3465625 -13 17 C-12.52949219 16.59007813 -12.05898438 16.18015625 -11.57421875 15.7578125 C-10.95160156 15.21898437 -10.32898438 14.68015625 -9.6875 14.125 C-9.07261719 13.59132813 -8.45773438 13.05765625 -7.82421875 12.5078125 C-3.58031088 9 -3.58031088 9 0 9 C0 6.03 0 3.06 0 0 Z " fill="#EBDFC9" transform="translate(65,11)"/>
<path d="M0 0 C3.59703646 1.33156827 6.69160473 2.93690381 9.9140625 5.01171875 C10.84089844 5.60533203 11.76773437 6.19894531 12.72265625 6.81054688 C13.68042969 7.42994141 14.63820313 8.04933594 15.625 8.6875 C16.55957031 9.28755859 17.49414062 9.88761719 18.45703125 10.50585938 C20.34826554 11.72016222 22.23815585 12.93656075 24.12670898 14.1550293 C27.92961649 16.59691663 31.75566484 19.00169311 35.5847168 21.40234375 C39.02998914 23.68131496 42.01284323 26.14560575 45 29 C45 29.66 45 30.32 45 31 C41.66666667 32.66666667 38.33333333 34.33333333 35 36 C32.1796875 34.78515625 32.1796875 34.78515625 28.875 33.0625 C27.77929688 32.49660156 26.68359375 31.93070313 25.5546875 31.34765625 C24.71164063 30.90292969 23.86859375 30.45820312 23 30 C23 30.99 23 31.98 23 33 C23.9075 33.28875 24.815 33.5775 25.75 33.875 C28.32202908 34.76531776 30.61346766 35.71494413 33 37 C33 37.66 33 38.32 33 39 C26.53273268 38.64775232 23.22849682 37.32422642 18.375 33.125 C14.45616108 29.84036931 10.68852316 27.12602702 6 25 C6 24.34 6 23.68 6 23 C5.030625 22.690625 4.06125 22.38125 3.0625 22.0625 C-0 21 -0 21 -1 20 C-1.10030219 17.77270128 -1.12965946 15.54205117 -1.125 13.3125 C-1.12757812 12.09175781 -1.13015625 10.87101562 -1.1328125 9.61328125 C-1.01147168 6.31209715 -0.62682546 3.2385982 0 0 Z " fill="#B29678" transform="translate(5,44)"/>
<path d="M0 0 C0.15918231 3.82037534 0.08758647 7.47530436 -0.5625 11.25 C-0.66691406 11.89453125 -0.77132812 12.5390625 -0.87890625 13.203125 C-2.39357679 15.63081994 -4.29341196 16.02794426 -6.88500977 17.02197266 C-11.22543201 19.02909854 -14.90390282 22.17261964 -18.6875 25.0625 C-20.35598971 26.32697228 -22.02648927 27.58879798 -23.69921875 28.84765625 C-24.42971436 29.40461182 -25.16020996 29.96156738 -25.9128418 30.53540039 C-27.88049433 31.91614054 -29.82286087 32.99018325 -32 34 C-33.48555383 33.07265428 -34.96327506 32.13275187 -36.4375 31.1875 C-37.26121094 30.66542969 -38.08492188 30.14335938 -38.93359375 29.60546875 C-41 28 -41 28 -42 25 C-43.32 25 -44.64 25 -46 25 C-45.45127532 21.15892722 -43.98081203 19.43171508 -41 17 C-38.67518826 15.98034573 -36.34205301 14.97940398 -34 14 C-33.56945312 13.48179688 -33.13890625 12.96359375 -32.6953125 12.4296875 C-30.10459659 10.24489021 -27.76684597 10.69846382 -24.4375 10.6875 C-17.44404303 10.3465327 -12.31386679 8.65397484 -7 4 C-6.67 3.01 -6.34 2.02 -6 1 C-4 0 -4 0 0 0 Z " fill="#B29779" transform="translate(104,50)"/>
<path d="M0 0 C2.97 0.495 2.97 0.495 6 1 C4.35 2.98 2.7 4.96 1 7 C2.0828125 6.2265625 2.0828125 6.2265625 3.1875 5.4375 C6 4 6 4 8.375 4.0625 C11.879108 5.31396714 14.81970029 7.06687665 18 9 C18 10.32 18 11.64 18 13 C15.36 13.33 12.72 13.66 10 14 C10 13.34 10 12.68 10 12 C9.34 12 8.68 12 8 12 C8.33 13.65 8.66 15.3 9 17 C6.75 19.0625 6.75 19.0625 4 21 C1.6875 20.75 1.6875 20.75 0 20 C1 18 2 16 3 14 C2.01 14 1.02 14 0 14 C0 14.66 0 15.32 0 16 C-1.65 16 -3.3 16 -5 16 C-5 14.68 -5 13.36 -5 12 C-6.98 12 -8.96 12 -11 12 C-10.712641 8.55169199 -10.23781351 7.23781351 -7.75 4.75 C-5.03650929 3.02323318 -3.16470757 2.36168087 0 2 C0 1.34 0 0.68 0 0 Z " fill="#AB8F6E" transform="translate(51,76)"/>
<path d="M0 0 C0.33 0 0.66 0 1 0 C1.77544426 7.9095315 1.77544426 7.9095315 -1 11.8125 C-5.29240867 14.94238132 -9.56717047 18 -15 18 C-15 20.64 -15 23.28 -15 26 C-15.66 25.67 -16.32 25.34 -17 25 C-16.835 23.948125 -16.67 22.89625 -16.5 21.8125 C-16.56495816 18.03761043 -16.56495816 18.03761043 -18.74609375 16.4921875 C-20.18996911 15.63255404 -21.65948613 14.81441017 -23.15234375 14.04296875 C-25 13 -25 13 -26 11 C-26.13415472 8.3276379 -26.04318541 5.67749512 -26 3 C-23.36 3.66 -20.72 4.32 -18 5 C-17.67 6.65 -17.34 8.3 -17 10 C-16.01 10.33 -15.02 10.66 -14 11 C-14 12.65 -14 14.3 -14 16 C-13.34 16 -12.68 16 -12 16 C-12.0825 15.0925 -12.165 14.185 -12.25 13.25 C-12 10 -12 10 -10.375 7.8125 C-7.73119294 5.79485777 -4.96854386 4.48427193 -2 3 C-1.34 2.01 -0.68 1.02 0 0 Z " fill="#806750" transform="translate(67,44)"/>
<path d="M0 0 C0.33 0 0.66 0 1 0 C1.3912999 4.7934238 1.01733533 8.22750219 -1.59765625 12.359375 C-5.35865036 16.75942382 -10.32289583 19.21151331 -16 20 C-18.23470405 20.78309467 -18.23470405 20.78309467 -20 22 C-20.33 22.99 -20.66 23.98 -21 25 C-22.7023148 25.75294693 -24.40896137 26.49911802 -26.14453125 27.171875 C-28.79290102 28.35388424 -30.83444571 30.09693714 -33 32 C-33.061875 31.071875 -33.061875 31.071875 -33.125 30.125 C-33.558125 29.073125 -33.558125 29.073125 -34 28 C-35.99541868 27.31974363 -37.99617991 26.65509503 -40 26 C-42.875 23.375 -42.875 23.375 -45 21 C-43.4375 20.25 -43.4375 20.25 -41 20 C-39.23356648 20.91476022 -37.46467365 21.83473954 -35.78125 22.89453125 C-33.9056277 24.05856877 -31.97898614 25.02457676 -30 26 C-29.49138428 25.63237549 -28.98276855 25.26475098 -28.45874023 24.88598633 C-26.11847052 23.19462528 -23.77798662 21.50356087 -21.4375 19.8125 C-20.63763672 19.23435547 -19.83777344 18.65621094 -19.01367188 18.06054688 C-17.42761981 16.91470518 -15.83958432 15.77160355 -14.24951172 14.63134766 C-12.81600768 13.5917694 -11.39421894 12.53570022 -9.98876953 11.45849609 C-6.61511572 8.90460863 -5.37175762 8 -1 8 C-0.67 5.36 -0.34 2.72 0 0 Z " fill="#705D46" transform="translate(103,57)"/>
<path d="M0 0 C2.31 0.66 4.62 1.32 7 2 C7.33 1.34 7.66 0.68 8 0 C8 0.66 8 1.32 8 2 C9.98 2 11.96 2 14 2 C14 3.32 14 4.64 14 6 C15.65 6 17.3 6 19 6 C19 5.34 19 4.68 19 4 C19.99 4 20.98 4 22 4 C21.34 5.98 20.68 7.96 20 10 C23.93075644 9.42547254 23.93075644 9.42547254 27 7 C27.16687448 4.41645782 27.16687448 4.41645782 27 2 C27.66 2 28.32 2 29 2 C29 2.66 29 3.32 29 4 C29.66 3.67 30.32 3.34 31 3 C32.99960012 2.960008 35.00047242 2.95653201 37 3 C33.69154447 7.25210435 31.27896805 10.33295746 26 12 C25.319375 12.556875 24.63875 13.11375 23.9375 13.6875 C22 15 22 15 20.10180664 14.71606445 C16.50500384 13.4906698 13.57044076 11.29928939 10.4375 9.1875 C9.76525391 8.74857422 9.09300781 8.30964844 8.40039062 7.85742188 C4.97506457 5.56820198 2.20713488 3.57305987 0 0 Z " fill="#826C52" transform="translate(32,86)"/>
<path d="M0 0 C0.66 0.33 1.32 0.66 2 1 C2.4921875 3.14453125 2.4921875 3.14453125 2.875 5.8125 C3.66147482 10.09238624 4.33339444 12.38099603 8 15 C8.9075 15.433125 9.815 15.86625 10.75 16.3125 C11.4925 16.869375 12.235 17.42625 13 18 C13.3125 21.6875 13.3125 21.6875 13 25 C11.35 24.67 9.7 24.34 8 24 C8 23.01 8 22.02 8 21 C7.01 20.9071875 7.01 20.9071875 6 20.8125 C-0.36585754 19.08841358 -5.27341097 15.434609 -9 10 C-5.63458162 8.91825838 -4.70152678 9.07461831 -1 10 C-0.67 6.7 -0.34 3.4 0 0 Z " fill="#E8E0D1" transform="translate(38,44)"/>
<path d="M0 0 C1.98 0.66 3.96 1.32 6 2 C6 2.66 6 3.32 6 4 C6.804375 4.185625 7.60875 4.37125 8.4375 4.5625 C14.06950006 6.83506143 18.34888073 10.82340014 23.0078125 14.6484375 C25.12134472 16.08232407 26.76758177 16.64964272 29.25 17.1875 C30.4875 17.455625 31.725 17.72375 33 18 C33 17.34 33 16.68 33 16 C31.63875 15.566875 31.63875 15.566875 30.25 15.125 C27.67797092 14.23468224 25.38653234 13.28505587 23 12 C23 11.01 23 10.02 23 9 C27.8274799 10.41292095 31.7162359 12.42974154 36 15 C35.67 16.32 35.34 17.64 35 19 C32.36 19 29.72 19 27 19 C26.67 19.66 26.34 20.32 26 21 C25.23816406 20.40251953 25.23816406 20.40251953 24.4609375 19.79296875 C21.35678712 17.4038193 18.46596333 15.22822694 14.9375 13.5 C11.70168045 11.84766661 9.36625486 9.85196751 6.7109375 7.40234375 C5.02157541 5.90688112 5.02157541 5.90688112 2.8359375 4.94921875 C1 4 1 4 0.25 1.875 C0.1675 1.25625 0.085 0.6375 0 0 Z " fill="#806C56" transform="translate(5,65)"/>
<path d="M0 0 C0.99 0 1.98 0 3 0 C4.84377293 3.68754586 4.35879563 7.96664217 4 12 C2.66362375 15.401685 1.56521154 17.43478846 -1 20 C-3.63233792 20.8563027 -6.29546818 21.38929927 -9 22 C-9.36761488 14.52516411 -9.36761488 14.52516411 -7.6875 12.125 C-3 9 -3 9 0 9 C0 6.03 0 3.06 0 0 Z " fill="#79664E" transform="translate(65,11)"/>
<path d="M0 0 C0.33 0 0.66 0 1 0 C1.12375 0.804375 1.2475 1.60875 1.375 2.4375 C1.58125 3.283125 1.7875 4.12875 2 5 C2.66 5.33 3.32 5.66 4 6 C4 6.99 4 7.98 4 9 C5.093125 9.2475 6.18625 9.495 7.3125 9.75 C11 11 11 11 12.9375 12.6875 C14.39469867 15.85905004 14.19864343 18.55684723 14 22 C3.57436857 19.34248611 3.57436857 19.34248611 0.87109375 15.3203125 C-0.29540925 12.21312513 -0.19116608 9.55830394 -0.125 6.25 C-0.09792969 4.49429687 -0.09792969 4.49429687 -0.0703125 2.703125 C-0.04710937 1.81109375 -0.02390625 0.9190625 0 0 Z " fill="#978269" transform="translate(39,13)"/>
<path d="M0 0 C3.16115776 1.36983503 3.9927092 1.9890638 6 5 C6.39687998 10.15943969 5.58019115 14.16066459 4 19 C2.68 19.33 1.36 19.66 0 20 C-3.08339967 14.98947554 -3.82429484 10.74892811 -3 5 C-1.5 1.9375 -1.5 1.9375 0 0 Z " fill="#7B654B" transform="translate(52,3)"/>
<path d="M0 0 C0.99 0 1.98 0 3 0 C3 4.62 3 9.24 3 14 C1.68 14 0.36 14 -1 14 C-1 14.66 -1 15.32 -1 16 C-1.53109375 16.21914062 -2.0621875 16.43828125 -2.609375 16.6640625 C-7.79542474 18.99210672 -10.27414583 21.00260068 -13 26 C-17.75 25.125 -17.75 25.125 -20 24 C-20 23.34 -20 22.68 -20 22 C-17.36 22 -14.72 22 -12 22 C-11.979375 21.2575 -11.95875 20.515 -11.9375 19.75 C-10.86885846 16.61531815 -10.31921518 16.28319198 -7.5625 14.6875 C-4 13 -4 13 -2 13 C-2 12.34 -2 11.68 -2 11 C-2.639375 10.731875 -3.27875 10.46375 -3.9375 10.1875 C-6 9 -6 9 -7 6 C-2.25 6.875 -2.25 6.875 0 8 C0 5.36 0 2.72 0 0 Z " fill="#745B40" transform="translate(52,62)"/>
<path d="M0 0 C0.33 0.99 0.66 1.98 1 3 C3.01508358 3.73323796 3.01508358 3.73323796 5 4 C4.01 4.5259375 4.01 4.5259375 3 5.0625 C0.42632519 6.72466498 -1.57205712 8.37823692 -3.8125 10.4375 C-7.61281009 13.85415973 -11.34485964 15.92181234 -16 18 C-16 15.03 -16 12.06 -16 9 C-15.22914062 8.59007812 -14.45828125 8.18015625 -13.6640625 7.7578125 C-12.66117188 7.21898437 -11.65828125 6.68015625 -10.625 6.125 C-9.62726562 5.59132813 -8.62953125 5.05765625 -7.6015625 4.5078125 C-4.94651605 3.1179862 -4.94651605 3.1179862 -3 1 C-3 1.66 -3 2.32 -3 3 C-2.01 2.01 -1.02 1.02 0 0 Z " fill="#E8DDCD" transform="translate(71,52)"/>
<path d="M0 0 C0.66 0 1.32 0 2 0 C1.9375 3.25 1.9375 3.25 1 7 C-1.875 9 -1.875 9 -3.765625 9.890625 C-7.52137164 11.75536634 -10.89173048 14.24994801 -14.3515625 16.609375 C-17.19743851 18.10366978 -18.83841858 18.29675493 -22 18 C-21.6244757 15.56215951 -21.36123632 14.31878917 -19.48120117 12.65966797 C-18.84158447 12.27439941 -18.20196777 11.88913086 -17.54296875 11.4921875 C-16.49206055 10.84830078 -16.49206055 10.84830078 -15.41992188 10.19140625 C-14.68322266 9.75699219 -13.94652344 9.32257812 -13.1875 8.875 C-12.46240234 8.43285156 -11.73730469 7.99070312 -10.99023438 7.53515625 C-5.66552093 4.31012395 -5.66552093 4.31012395 -2.8215332 2.98486328 C-0.82651501 2.13143713 -0.82651501 2.13143713 0 0 Z " fill="#B0977C" transform="translate(101,41)"/>
<path d="M0 0 C0.10957031 0.74765625 0.21914063 1.4953125 0.33203125 2.265625 C0.49058594 3.25046875 0.64914063 4.2353125 0.8125 5.25 C0.96332031 6.22453125 1.11414062 7.1990625 1.26953125 8.203125 C2.03218264 11.12322338 3.03774101 12.74205815 5 15 C1.86846113 16.3778771 0.71220527 15.90076044 -2.625 14.75 C-6 13 -6 13 -8 10 C-8.33 10 -8.66 10 -9 10 C-9.33 7.36 -9.66 4.72 -10 2 C-3.375 -1.125 -3.375 -1.125 0 0 Z " fill="#F6EBD9" transform="translate(49,9)"/>
<path d="M0 0 C0.0270043 1.45823212 0.04639787 2.91660675 0.0625 4.375 C0.07410156 5.18710937 0.08570312 5.99921875 0.09765625 6.8359375 C0 9 0 9 -1 11 C-3.3251719 12.07315626 -5.62171122 13.06370526 -8 14 C-8.969375 14.391875 -9.93875 14.78375 -10.9375 15.1875 C-11.618125 15.455625 -12.29875 15.72375 -13 16 C-13.15556788 11.71216036 -13.02553069 8.29540718 -10.29296875 4.84375 C-4.94300717 0 -4.94300717 0 0 0 Z " fill="#745E45" transform="translate(68,32)"/>
<path d="M0 0 C4.99052415 0.47528801 8.29390099 1.55246604 12 5 C12.79270303 8.00501801 12.98675114 10.89976756 13 14 C8.63096191 13.49197232 5.54301263 12.65725947 2 10 C-0.33287288 6.77841364 -0.17683757 3.89042645 0 0 Z " fill="#78634B" transform="translate(39,33)"/>
<path d="M0 0 C2.64 1.32 5.28 2.64 8 4 C8 5.32 8 6.64 8 8 C5.36 8.33 2.72 8.66 0 9 C0 8.34 0 7.68 0 7 C-0.66 7 -1.32 7 -2 7 C-1.67 8.65 -1.34 10.3 -1 12 C-3.25 14.0625 -3.25 14.0625 -6 16 C-8.3125 15.75 -8.3125 15.75 -10 15 C-9 13 -8 11 -7 9 C-7.99 8.67 -8.98 8.34 -10 8 C-8.68 8 -7.36 8 -6 8 C-5.7525 7.4225 -5.505 6.845 -5.25 6.25 C-3.83316683 3.6997003 -2.12372463 1.98214299 0 0 Z " fill="#907555" transform="translate(61,81)"/>
<path d="M0 0 C0.515625 0.2475 1.03125 0.495 1.5625 0.75 C0.59018947 3.20103279 0.06634368 4.48548207 -2.3125 5.734375 C-3.01375 5.98703125 -3.715 6.2396875 -4.4375 6.5 C-7.02903999 7.66431507 -8.16884594 8.1866931 -9.40625 10.78125 C-10.03406777 13.23629026 -10.03406777 13.23629026 -10.4375 16.75 C-11.0975 16.75 -11.7575 16.75 -12.4375 16.75 C-12.56125 15.945625 -12.685 15.14125 -12.8125 14.3125 C-13.121875 13.0440625 -13.121875 13.0440625 -13.4375 11.75 C-14.0975 11.42 -14.7575 11.09 -15.4375 10.75 C-15.1075 9.1 -14.7775 7.45 -14.4375 5.75 C-12.7875 5.75 -11.1375 5.75 -9.4375 5.75 C-9.4375 5.09 -9.4375 4.43 -9.4375 3.75 C-3.0375 -0.31153846 -3.0375 -0.31153846 0 0 Z " fill="#EBDBC6" transform="translate(65.4375,43.25)"/>
<path d="M0 0 C3.23693164 1.48483103 5.9325625 3.32707435 8.75 5.5 C9.54921875 6.1084375 10.3484375 6.716875 11.171875 7.34375 C11.77515625 7.8903125 12.3784375 8.436875 13 9 C13 9.66 13 10.32 13 11 C9.535 12.485 9.535 12.485 6 14 C3.95880212 12.38405168 1.95927063 10.7143618 0 9 C0 8.34 0 7.68 0 7 C0.99 6.34 1.98 5.68 3 5 C3 4.34 3 3.68 3 3 C2.34 3 1.68 3 1 3 C0.67 2.01 0.34 1.02 0 0 Z " fill="#A58A6D" transform="translate(37,64)"/>
<path d="M0 0 C-1.39493652 4.43843439 -3.51898201 6.9434964 -7 10 C-7.99 10.33 -8.98 10.66 -10 11 C-10 11.66 -10 12.32 -10 13 C-12.31 13 -14.62 13 -17 13 C-6.84615385 0 -6.84615385 0 0 0 Z " fill="#E8DDCC" transform="translate(81,82)"/>
<path d="M0 0 C0.33 0 0.66 0 1 0 C1 2.31 1 4.62 1 7 C0.67 6.34 0.34 5.68 0 5 C-1.32 5.33 -2.64 5.66 -4 6 C-4.0721875 6.59296875 -4.144375 7.1859375 -4.21875 7.796875 C-5.57440162 11.61981256 -8.82631283 12.86364915 -12.2109375 14.8046875 C-16.38458059 16.59339168 -19.51659071 16.43387832 -24 16 C-23.46246094 15.73960938 -22.92492187 15.47921875 -22.37109375 15.2109375 C-19.54733887 13.76882216 -16.80819674 12.21078702 -14.0625 10.625 C-13.04285156 10.03976563 -12.02320312 9.45453125 -10.97265625 8.8515625 C-7.95558346 7.06427042 -7.95558346 7.06427042 -5.30859375 4.7734375 C-3 3 -3 3 0 3 C0 2.01 0 1.02 0 0 Z " fill="#8A7153" transform="translate(102,45)"/>
<path d="M0 0 C0.55300781 0.22945313 1.10601562 0.45890625 1.67578125 0.6953125 C0.23304955 4.06168647 -1.48889282 6.36033821 -4.32421875 8.6953125 C-5.64421875 8.6953125 -6.96421875 8.6953125 -8.32421875 8.6953125 C-8.32421875 9.6853125 -8.32421875 10.6753125 -8.32421875 11.6953125 C-9.97421875 11.6953125 -11.62421875 11.6953125 -13.32421875 11.6953125 C-13.02936663 8.35365519 -12.64174371 6.99953495 -10.1796875 4.640625 C-9.29925781 4.03992188 -8.41882812 3.43921875 -7.51171875 2.8203125 C-6.20267578 1.89605469 -6.20267578 1.89605469 -4.8671875 0.953125 C-2.32421875 -0.3046875 -2.32421875 -0.3046875 0 0 Z " fill="#B59977" transform="translate(59.32421875,80.3046875)"/>
<path d="M0 0 C2.64 0.66 5.28 1.32 8 2 C8.33 3.65 8.66 5.3 9 7 C9.66 7 10.32 7 11 7 C11 7.99 11 8.98 11 10 C9.68 10 8.36 10 7 10 C7 9.34 7 8.68 7 8 C6.01 8.66 5.02 9.32 4 10 C3.01 10 2.02 10 1 10 C-0.60725635 6.78548731 -0.05748185 3.56387464 0 0 Z " fill="#78604A" transform="translate(41,47)"/>
<path d="M0 0 C0.99 0 1.98 0 3 0 C4.84389259 3.68778518 4.35826551 7.96642448 4 12 C1.84782609 17.57608696 1.84782609 17.57608696 -1 19 C-0.67 16.36 -0.34 13.72 0 11 C-0.99 10.67 -1.98 10.34 -3 10 C-2.01 9.67 -1.02 9.34 0 9 C0 6.03 0 3.06 0 0 Z " fill="#928672" transform="translate(65,11)"/>
<path d="M0 0 C0.33 0 0.66 0 1 0 C1.33 1.98 1.66 3.96 2 6 C3.29217171 5.52219697 4.58372046 5.04270894 5.875 4.5625 C6.59429687 4.29566406 7.31359375 4.02882813 8.0546875 3.75390625 C10.03648845 3.02083146 10.03648845 3.02083146 12 2 C12 2.66 12 3.32 12 4 C12.66 4.33 13.32 4.66 14 5 C14 6.65 14 8.3 14 10 C13.67 8.68 13.34 7.36 13 6 C8.33285711 7.83025211 4.81234923 9.6497537 1 13 C1.33 11.68 1.66 10.36 2 9 C1.01 9 0.02 9 -1 9 C-1.09765625 2.84765625 -1.09765625 2.84765625 -1 1 C-0.67 0.67 -0.34 0.34 0 0 Z " fill="#CFC4AD" transform="translate(55,26)"/>
<path d="M0 0 C8.59375 5.17578125 8.59375 5.17578125 11 7 C11 7.99 11 8.98 11 10 C7.28111761 9.49287967 4.26545761 8.88391785 1 7 C1 9.31 1 11.62 1 14 C0.67 14 0.34 14 0 14 C0 9.38 0 4.76 0 0 Z " fill="#BAA28A" transform="translate(4,50)"/>
<path d="M0 0 C3.63 1.32 7.26 2.64 11 4 C11.33 3.34 11.66 2.68 12 2 C13.02104551 2.97850195 14.0206121 3.97980427 15 5 C15 5.33 15 5.66 15 6 C12.69 6.66 10.38 7.32 8 8 C8 7.34 8 6.68 8 6 C5.69 5.67 3.38 5.34 1 5 C0.67 6.65 0.34 8.3 0 10 C-0.33 10 -0.66 10 -1 10 C-1.02689216 8.52093108 -1.04634621 7.04172517 -1.0625 5.5625 C-1.07410156 4.73878906 -1.08570313 3.91507813 -1.09765625 3.06640625 C-1 1 -1 1 0 0 Z " fill="#CCBAA4" transform="translate(41,43)"/>
<path d="M0 0 C0.33 0 0.66 0 1 0 C1.12375 0.804375 1.2475 1.60875 1.375 2.4375 C1.58125 3.283125 1.7875 4.12875 2 5 C2.66 5.33 3.32 5.66 4 6 C4 6.99 4 7.98 4 9 C6.475 9.99 6.475 9.99 9 11 C8.67 11.99 8.34 12.98 8 14 C5.66705225 14.04241723 3.33297433 14.04092937 1 14 C0 13 0 13 -0.09765625 10.05859375 C-0.08605469 8.86363281 -0.07445312 7.66867188 -0.0625 6.4375 C-0.05347656 5.23996094 -0.04445312 4.04242188 -0.03515625 2.80859375 C-0.02355469 1.88175781 -0.01195312 0.95492188 0 0 Z " fill="#7A654A" transform="translate(39,13)"/>
<path d="M0 0 C0 3.57575896 -1.08840607 5.05295935 -3 8 C-2.01 8.33 -1.02 8.66 0 9 C-3.96 10.98 -3.96 10.98 -8 13 C-8 10.03 -8 7.06 -8 4 C-5.36 2.68 -2.72 1.36 0 0 Z " fill="#DED1BF" transform="translate(63,57)"/>
<path d="M0 0 C0 0.66 0 1.32 0 2 C1.32 2 2.64 2 4 2 C4.33 1.34 4.66 0.68 5 0 C5 1.65 5 3.3 5 5 C5.66 5 6.32 5 7 5 C7 5.66 7 6.32 7 7 C6.01 7 5.02 7 4 7 C4 9.64 4 12.28 4 15 C3.34 14.67 2.68 14.34 2 14 C2 11.69 2 9.38 2 7 C-1.465 5.02 -1.465 5.02 -5 3 C-2.25 0 -2.25 0 0 0 Z " fill="#97806A" transform="translate(48,55)"/>
<path d="M0 0 C0.66 0 1.32 0 2 0 C2 0.66 2 1.32 2 2 C2.66 1.67 3.32 1.34 4 1 C5.99960012 0.960008 8.00047242 0.95653201 10 1 C4.9059081 7.70459519 4.9059081 7.70459519 1.125 8.9375 C0.42375 8.958125 -0.2775 8.97875 -1 9 C-1 6.35945505 -0.64892216 4.51457338 0 2 C0 1.34 0 0.68 0 0 Z " fill="#77644C" transform="translate(59,88)"/>
<path d="M0 0 C0.45890625 0.34933594 0.9178125 0.69867187 1.390625 1.05859375 C2.31101562 1.74115234 2.31101562 1.74115234 3.25 2.4375 C3.85328125 2.88996094 4.4565625 3.34242187 5.078125 3.80859375 C7.06292756 5.03900997 8.71987655 5.56112668 11 6 C10.67 7.32 10.34 8.64 10 10 C9.45730469 9.72285156 8.91460937 9.44570313 8.35546875 9.16015625 C7.64003906 8.79792969 6.92460938 8.43570313 6.1875 8.0625 C5.47980469 7.70285156 4.77210937 7.34320313 4.04296875 6.97265625 C1.88189715 5.89269484 1.88189715 5.89269484 -1 5 C-0.34 8.3 0.32 11.6 1 15 C0.01 14.34 -0.98 13.68 -2 13 C-2.29296875 10.6171875 -2.29296875 10.6171875 -2.1875 7.875 C-2.16042969 6.96492188 -2.13335937 6.05484375 -2.10546875 5.1171875 C-2.07066406 4.41851562 -2.03585938 3.71984375 -2 3 C-1.34 3 -0.68 3 0 3 C0 2.01 0 1.02 0 0 Z " fill="#D3C6B1" transform="translate(40,28)"/>
<path d="M0 0 C5.62917348 0.40208382 8.00386479 2.28930302 12 6 C11.67 6.66 11.34 7.32 11 8 C5.97307937 7.54300722 2.85103739 5.00758252 -1 2 C-0.67 1.34 -0.34 0.68 0 0 Z " fill="#6E5336" transform="translate(59,77)"/>
<path d="M0 0 C5.875 0.875 5.875 0.875 7 2 C7.04092937 4.33297433 7.04241723 6.66705225 7 9 C5.35 8.67 3.7 8.34 2 8 C2 7.01 2 6.02 2 5 C1.34 5 0.68 5 0 5 C0 3.35 0 1.7 0 0 Z " fill="#F1E6D7" transform="translate(44,60)"/>
<path d="M0 0 C1.44319692 0.90767102 2.87934106 1.82656106 4.3125 2.75 C5.11300781 3.26046875 5.91351563 3.7709375 6.73828125 4.296875 C9.00368861 6.00277761 10.42684167 7.65808145 12 10 C10.35 10.33 8.7 10.66 7 11 C6.01216806 9.92456217 5.03506057 8.83926783 4.0625 7.75 C3.51722656 7.14671875 2.97195312 6.5434375 2.41015625 5.921875 C0.93787201 3.91532695 0.42470811 2.42997551 0 0 Z " fill="#EDE2D1" transform="translate(22,79)"/>
<path d="M0 0 C0.66 0.33 1.32 0.66 2 1 C0.35 2.65 -1.3 4.3 -3 6 C-2.67 6.66 -2.34 7.32 -2 8 C-3.32 8 -4.64 8 -6 8 C-6.268125 8.639375 -6.53625 9.27875 -6.8125 9.9375 C-8 12 -8 12 -11 13 C-11.99 12.34 -12.98 11.68 -14 11 C-11.55204993 8.97169851 -9.18462885 7.10807543 -6.4375 5.5 C-3.8908009 3.93280055 -2.03107002 2.18151965 0 0 Z " fill="#7E6A51" transform="translate(69,59)"/>
<path d="M0 0 C4.8274799 1.41292095 8.7162359 3.42974154 13 6 C12.67 7.32 12.34 8.64 12 10 C10.68 9.67 9.36 9.34 8 9 C8.66 9 9.32 9 10 9 C10 8.34 10 7.68 10 7 C9.0925 6.71125 8.185 6.4225 7.25 6.125 C4.67797092 5.23468224 2.38653234 4.28505587 0 3 C0 2.01 0 1.02 0 0 Z " fill="#977B5F" transform="translate(28,74)"/>
<path d="M0 0 C1.98 0.66 3.96 1.32 6 2 C6 2.66 6 3.32 6 4 C7.4540625 4.4021875 7.4540625 4.4021875 8.9375 4.8125 C9.948125 5.204375 10.95875 5.59625 12 6 C12.33 6.99 12.66 7.98 13 9 C7.97370003 8.26083824 3.63107238 6.63107238 0 3 C0 2.01 0 1.02 0 0 Z " fill="#6E5D46" transform="translate(5,65)"/>
<path d="M0 0 C0 2.97 0 5.94 0 9 C-0.66 8.67 -1.32 8.34 -2 8 C-2 7.34 -2 6.68 -2 6 C-4.31 5.67 -6.62 5.34 -9 5 C-4.5 0 -4.5 0 0 0 Z " fill="#86765E" transform="translate(68,32)"/>
<path d="M0 0 C0.515625 0.2475 1.03125 0.495 1.5625 0.75 C0.45550099 3.96029714 -0.45353825 4.75968977 -3.4375 6.5625 C-4.4275 6.954375 -5.4175 7.34625 -6.4375 7.75 C-7.0975 7.42 -7.7575 7.09 -8.4375 6.75 C-8.1075 6.09 -7.7775 5.43 -7.4375 4.75 C-8.0975 4.42 -8.7575 4.09 -9.4375 3.75 C-3.0375 -0.31153846 -3.0375 -0.31153846 0 0 Z " fill="#DBC6AF" transform="translate(65.4375,43.25)"/>
<path d="M0 0 C0.78375 0.04125 1.5675 0.0825 2.375 0.125 C1.99992618 2.84428517 1.53281339 3.96718661 -0.4375 5.9375 C-2.625 7.125 -2.625 7.125 -4.875 6.8125 C-5.4525 6.585625 -6.03 6.35875 -6.625 6.125 C-3.85227273 0.18344156 -3.85227273 0.18344156 0 0 Z " fill="#AD9375" transform="translate(57.625,89.875)"/>
<path d="M0 0 C5.00028314 1.34153938 9.19067503 3.48370003 13 7 C13 7.66 13 8.32 13 9 C7.71223057 8.66951441 3.75899378 5.51647805 0 2 C0 1.34 0 0.68 0 0 Z " fill="#93795B" transform="translate(5,49)"/>
<path d="M0 0 C-0.49371094 0.48210937 -0.98742187 0.96421875 -1.49609375 1.4609375 C-2.45708984 2.40839844 -2.45708984 2.40839844 -3.4375 3.375 C-4.07558594 4.00148438 -4.71367188 4.62796875 -5.37109375 5.2734375 C-7.07882176 6.91723061 -7.07882176 6.91723061 -8 9 C-9.32 9 -10.64 9 -12 9 C-11.45466911 5.18268377 -9.93170573 3.44308811 -7 1 C-2.5 -1.25 -2.5 -1.25 0 0 Z " fill="#AA8F73" transform="translate(70,66)"/>
<path d="M0 0 C5.51635966 1.37908991 9.86958227 4.1421479 14 8 C14 8.66 14 9.32 14 10 C10.42705968 8.67997942 7.36046508 7.10478612 4.1875 5 C3.39730469 4.484375 2.60710938 3.96875 1.79296875 3.4375 C1.20128906 2.963125 0.60960937 2.48875 0 2 C0 1.34 0 0.68 0 0 Z " fill="#907358" transform="translate(5,57)"/>
<path d="M0 0 C0.66 0 1.32 0 2 0 C2 4.62 2 9.24 2 14 C0.68 14 -0.64 14 -2 14 C-1.7834375 13.0409375 -1.7834375 13.0409375 -1.5625 12.0625 C-0.82763202 8.06155212 -0.41418889 4.04495104 0 0 Z " fill="#5E4831" transform="translate(53,62)"/>
<path d="M0 0 C2.31 0 4.62 0 7 0 C7 1.65 7 3.3 7 5 C5.68 5 4.36 5 3 5 C2.67 5.99 2.34 6.98 2 8 C1.67 8 1.34 8 1 8 C0.67 5.36 0.34 2.72 0 0 Z " fill="#D9D2C4" transform="translate(39,11)"/>
<path d="M0 0 C0 2 0 2 -2.4375 4.5 C-3.283125 5.325 -4.12875 6.15 -5 7 C-5.33 7.66 -5.66 8.32 -6 9 C-10.75 8.125 -10.75 8.125 -13 7 C-13 6.34 -13 5.68 -13 5 C-10.36 5 -7.72 5 -5 5 C-5 4.01 -5 3.02 -5 2 C-2 0 -2 0 0 0 Z " fill="#664C31" transform="translate(45,79)"/>
<path d="M0 0 C0.99 0.33 1.98 0.66 3 1 C3 1.66 3 2.32 3 3 C2.34 3 1.68 3 1 3 C1 3.99 1 4.98 1 6 C-0.98 6.33 -2.96 6.66 -5 7 C-5.33 6.01 -5.66 5.02 -6 4 C-3.1875 1.9375 -3.1875 1.9375 0 0 Z " fill="#E7DCCC" transform="translate(89,75)"/>
<path d="M0 0 C0.70125 0.144375 1.4025 0.28875 2.125 0.4375 C2.455 1.0975 2.785 1.7575 3.125 2.4375 C1.805 2.4375 0.485 2.4375 -0.875 2.4375 C-0.9575 3.05625 -1.04 3.675 -1.125 4.3125 C-1.875 6.4375 -1.875 6.4375 -3.75 7.75 C-5.875 8.4375 -5.875 8.4375 -8.875 7.4375 C-3.7809081 0.57535558 -3.7809081 0.57535558 0 0 Z " fill="#6B5942" transform="translate(73.875,57.5625)"/>
<path d="M0 0 C-1.5885342 4.28904235 -4.43127368 6.32345526 -8 9 C-8.66 9 -9.32 9 -10 9 C-9.74410214 5.54537888 -8.71373837 4.72618453 -6.125 2.25 C-3 0 -3 0 0 0 Z " fill="#90785C" transform="translate(101,57)"/>
<path d="M0 0 C2.00720923 0.28674418 4.0085944 0.61866701 6 1 C6 2.65 6 4.3 6 6 C4.35 6 2.7 6 1 6 C0.34 4.35 -0.32 2.7 -1 1 C-0.67 0.67 -0.34 0.34 0 0 Z " fill="#7B654D" transform="translate(46,28)"/>
<path d="M0 0 C0.66 0.99 1.32 1.98 2 3 C2.99387334 4.33790641 3.9926892 5.67218122 5 7 C2.83032311 7.95465783 1.43671207 8.14401212 -0.82421875 7.3984375 C-2.5684743 6.64129615 -4.28627131 5.82390802 -6 5 C-6 4.34 -6 3.68 -6 3 C-4.02 3 -2.04 3 0 3 C0 2.01 0 1.02 0 0 Z " fill="#E1D5BE" transform="translate(49,17)"/>
<path d="M0 0 C-1.46218487 4.6302521 -1.46218487 4.6302521 -4 6.375 C-6 7 -6 7 -8 6 C-6.24081631 1.94034532 -4.71412298 0 0 0 Z " fill="#DBCDBA" transform="translate(81,82)"/>
<path d="M0 0 C0.78375 0.04125 1.5675 0.0825 2.375 0.125 C2.045 1.775 1.715 3.425 1.375 5.125 C0.055 5.455 -1.265 5.785 -2.625 6.125 C-3.285 4.805 -3.945 3.485 -4.625 2.125 C-2.625 0.125 -2.625 0.125 0 0 Z " fill="#93836D" transform="translate(54.625,16.875)"/>
<path d="M0 0 C1.9375 0.8125 1.9375 0.8125 4 2 C4.33 2.99 4.66 3.98 5 5 C3.576875 5.4640625 3.576875 5.4640625 2.125 5.9375 C-0.86080408 6.87394742 -0.86080408 6.87394742 -3 8 C-2.45276317 4.62537285 -1.9451 2.91765 0 0 Z " fill="#978772" transform="translate(52,3)"/>
<path d="M0 0 C2.31 0.66 4.62 1.32 7 2 C7.33 1.34 7.66 0.68 8 0 C8.33 1.98 8.66 3.96 9 6 C4.58763974 6 3.21615077 3.9302707 0 1 C0 0.67 0 0.34 0 0 Z " fill="#8A795F" transform="translate(32,86)"/>
<path d="M0 0 C0.33 0 0.66 0 1 0 C1.05422947 1.4370809 1.09289723 2.87475462 1.125 4.3125 C1.14820312 5.11300781 1.17140625 5.91351563 1.1953125 6.73828125 C1 9 1 9 -1 12 C-1.66 12 -2.32 12 -3 12 C-3.33 10.68 -3.66 9.36 -4 8 C-2.68 7.67 -1.36 7.34 0 7 C-0.66 5.68 -1.32 4.36 -2 3 C-1.34 2.01 -0.68 1.02 0 0 Z " fill="#84715B" transform="translate(67,44)"/>
<path d="M0 0 C1.32 0.66 2.64 1.32 4 2 C3.01 2.495 3.01 2.495 2 3 C2 4.65 2 6.3 2 8 C0.02 7.01 -1.96 6.02 -4 5 C-2.68 3.35 -1.36 1.7 0 0 Z " fill="#E2D6C9" transform="translate(42,57)"/>
<path d="M0 0 C3.37462715 0.54723683 5.08235 1.0549 8 3 C8 3.99 8 4.98 8 6 C4.65750371 5.40312566 2.53563658 4.26396123 0 2 C0 1.34 0 0.68 0 0 Z " fill="#6F5A45" transform="translate(25,54)"/>
<path d="M0 0 C1.98 0 3.96 0 6 0 C6 1.32 6 2.64 6 4 C3.69 4 1.38 4 -1 4 C-0.67 2.68 -0.34 1.36 0 0 Z " fill="#A48B70" transform="translate(63,85)"/>
<path d="M0 0 C0 1.98 0 3.96 0 6 C-1.65 6 -3.3 6 -5 6 C-5 4.68 -5 3.36 -5 2 C-2 0 -2 0 0 0 Z " fill="#AF9C83" transform="translate(102,59)"/>
<path d="M0 0 C2.125 0.9375 2.125 0.9375 4 2 C3.67 3.65 3.34 5.3 3 7 C0.525 6.01 0.525 6.01 -2 5 C-2 3.68 -2 2.36 -2 1 C-1.34 0.67 -0.68 0.34 0 0 Z " fill="#AC8E70" transform="translate(13,64)"/>
<path d="M0 0 C0.99 0.33 1.98 0.66 3 1 C3 1.66 3 2.32 3 3 C-1.38461538 6 -1.38461538 6 -4 6 C-4.33 5.01 -4.66 4.02 -5 3 C-2.6875 1.4375 -2.6875 1.4375 0 0 Z " fill="#E8DDCD" transform="translate(96,38)"/>
<path d="M0 0 C0.66 0 1.32 0 2 0 C1.67 2.64 1.34 5.28 1 8 C0.01 8 -0.98 8 -2 8 C-2.33 6.02 -2.66 4.04 -3 2 C-2.01 2 -1.02 2 0 2 C0 1.34 0 0.68 0 0 Z " fill="#73593D" transform="translate(63,22)"/>
<path d="M0 0 C0.66 0.33 1.32 0.66 2 1 C1.67 2.65 1.34 4.3 1 6 C-0.98 6 -2.96 6 -5 6 C-5 5.34 -5 4.68 -5 4 C-3.37373596 2.61767557 -1.7074998 1.28062485 0 0 Z " fill="#E2DAC8" transform="translate(59,96)"/>
<path d="M0 0 C0 1.98 0 3.96 0 6 C-1.65 6.33 -3.3 6.66 -5 7 C-4.53479806 4.30182875 -3.4249099 0 0 0 Z " fill="#F3ECDF" transform="translate(65,58)"/>
<path d="M0 0 C0.33 0 0.66 0 1 0 C1.12375 0.804375 1.2475 1.60875 1.375 2.4375 C1.58125 3.283125 1.7875 4.12875 2 5 C2.66 5.33 3.32 5.66 4 6 C4 6.99 4 7.98 4 9 C3.01 9 2.02 9 1 9 C0.67 10.32 0.34 11.64 0 13 C0 8.71 0 4.42 0 0 Z " fill="#8A7B67" transform="translate(39,13)"/>
<path d="M0 0 C0.66 0 1.32 0 2 0 C2.33 0.66 2.66 1.32 3 2 C5.02463255 2.65213292 5.02463255 2.65213292 7 3 C7 3.66 7 4.32 7 5 C4.69 5 2.38 5 0 5 C0 3.35 0 1.7 0 0 Z " fill="#715B43" transform="translate(42,90)"/>
<path d="M0 0 C0.33 0 0.66 0 1 0 C1.08159574 4.16138263 0.98248524 7.9472484 0 12 C-2 9 -2 9 -3 6 C-2.34 6 -1.68 6 -1 6 C-0.67 4.02 -0.34 2.04 0 0 Z " fill="#A28D74" transform="translate(103,50)"/>
<path d="M0 0 C2.31 0 4.62 0 7 0 C6.67 1.65 6.34 3.3 6 5 C3.5625 4.1875 3.5625 4.1875 1 3 C0.67 2.01 0.34 1.02 0 0 Z " fill="#907A61" transform="translate(40,27)"/>
<path d="M0 0 C1.65 0 3.3 0 5 0 C5 1.65 5 3.3 5 5 C4.34 4.67 3.68 4.34 3 4 C3 3.34 3 2.68 3 2 C2.34 2 1.68 2 1 2 C0.67 3.32 0.34 4.64 0 6 C-1.24546405 3.50907189 -0.7767578 2.58919267 0 0 Z " fill="#816849" transform="translate(41,88)"/>
<path d="M0 0 C1.98 0 3.96 0 6 0 C4.71937515 1.7074998 3.38232443 3.37373596 2 5 C1.34 5 0.68 5 0 5 C0 3.35 0 1.7 0 0 Z " fill="#6C5A44" transform="translate(63,89)"/>
<path d="M0 0 C0 1.98 0 3.96 0 6 C-1.32 5.67 -2.64 5.34 -4 5 C-4 3.68 -4 2.36 -4 1 C-2 0 -2 0 0 0 Z " fill="#B29D84" transform="translate(102,50)"/>
<path d="M0 0 C-1.75 5.75 -1.75 5.75 -4 8 C-4 6.35 -4 4.7 -4 3 C-4.66 2.67 -5.32 2.34 -6 2 C-2.25 0 -2.25 0 0 0 Z " fill="#F4E9D5" transform="translate(58,48)"/>
<path d="M0 0 C1.32 0.33 2.64 0.66 4 1 C4.33 2.65 4.66 4.3 5 6 C3.68 6 2.36 6 1 6 C0.67 4.02 0.34 2.04 0 0 Z " fill="#78644C" transform="translate(62,37)"/>
<path d="M0 0 C2.97 1.98 2.97 1.98 6 4 C5.67 4.66 5.34 5.32 5 6 C3.68 5.67 2.36 5.34 1 5 C0.67 3.35 0.34 1.7 0 0 Z " fill="#E5DFD0" transform="translate(9,70)"/>
<path d="M0 0 C0.66 0.99 1.32 1.98 2 3 C0.02 4.32 -1.96 5.64 -4 7 C-4.66 6.67 -5.32 6.34 -6 6 C-4.02 4.02 -2.04 2.04 0 0 Z " fill="#866B4B" transform="translate(57,77)"/>
<path d="M0 0 C1.65 0 3.3 0 5 0 C5.33 0.66 5.66 1.32 6 2 C4.02 2.66 2.04 3.32 0 4 C0 2.68 0 1.36 0 0 Z " fill="#775D45" transform="translate(55,57)"/>
</svg>
